<svg width="500" height="500" viewBox="0 0 500 500" fill="none" xmlns="http://www.w3.org/2000/svg">
<mask id="mask0_332_114" style="mask-type:luminance" maskUnits="userSpaceOnUse" x="0" y="0" width="500" height="500">
<path d="M500 0H0V500H500V0Z" fill="white"/>
</mask>
<g mask="url(#mask0_332_114)">
<path d="M361.297 333.332L325.755 231.676L376.448 196.97L414.329 386.367L361.297 333.332Z" fill="#1470A9"/>
<path d="M96.1465 181.818L376.45 106.061V151.515L141.601 212.121L96.1465 181.818Z" fill="#76C1EF"/>
<path d="M50.692 151.515L255.238 287.879V356.061L50.692 250V151.515Z" fill="#76C1EF"/>
<path d="M50.692 151.515L255.238 287.879V356.061L50.692 250V151.515Z" fill="#76C1EF"/>
<path d="M414.329 386.364L376.45 196.97L452.208 159.091V356.061L414.329 386.364Z" fill="#289DE6"/>
<path d="M414.329 386.364L376.45 196.97L452.208 159.091V356.061L414.329 386.364Z" fill="#289DE6"/>
<path d="M255.238 492.424V287.879L338.571 227.273L376.45 409.091L255.238 492.424Z" fill="#32A1E7"/>
<path d="M255.238 492.424V287.879L338.571 227.273L376.45 409.091L255.238 492.424Z" fill="#32A1E7"/>
<path d="M88.5695 265.183L257.17 350.332L255.238 401.515L50.6917 295.455L88.5695 265.183Z" fill="#289DE6"/>
<path d="M88.5695 265.183L257.17 350.332L255.238 401.515L50.6917 295.455L88.5695 265.183Z" fill="#289DE6"/>
<path d="M50.692 295.455L255.238 401.515V492.424L50.692 356.061V295.455Z" fill="#76C1EF"/>
<path d="M50.692 295.455L255.238 401.515V492.424L50.692 356.061V295.455Z" fill="#76C1EF"/>
<path d="M50.6919 151.515L247.662 15.1516L277.965 37.8789L376.45 106.061L96.1464 181.818L50.6919 151.515Z" fill="#ADDAF5"/>
<path d="M141.601 212.121L421.905 136.364L452.208 159.091L255.238 287.879L141.601 212.121Z" fill="#ADDAF5"/>
</g>
</svg>
