<svg width="144" height="36" viewBox="0 0 144 36" fill="none" xmlns="http://www.w3.org/2000/svg">
<g clip-path="url(#clip0_68_176)">
<mask id="mask0_68_176" style="mask-type:luminance" maskUnits="userSpaceOnUse" x="6" y="2" width="32" height="32">
<path d="M38 2H6V34H38V2Z" fill="white"/>
</mask>
<g mask="url(#mask0_68_176)">
<path d="M29.123 23.3331L26.8483 16.8271L30.0927 14.606L32.517 26.7274L29.123 23.3331Z" fill="#1470A9"/>
<path d="M12.1534 13.6366L30.0928 8.78809V11.6972L15.0625 15.576L12.1534 13.6366Z" fill="#76C1EF"/>
<path d="M9.24429 11.6968L22.3352 20.424V24.7877L9.24429 17.9998V11.6968Z" fill="#76C1EF"/>
<path d="M9.24429 11.6968L22.3352 20.424V24.7877L9.24429 17.9998V11.6968Z" fill="#76C1EF"/>
<path d="M32.517 26.7271L30.0928 14.6059L34.9413 12.1816V24.7877L32.517 26.7271Z" fill="#289DE6"/>
<path d="M32.517 26.7271L30.0928 14.6059L34.9413 12.1816V24.7877L32.517 26.7271Z" fill="#289DE6"/>
<path d="M22.3352 33.5151V20.4242L27.6685 16.5454L30.0928 28.1818L22.3352 33.5151Z" fill="#32A1E7"/>
<path d="M22.3352 33.5151V20.4242L27.6685 16.5454L30.0928 28.1818L22.3352 33.5151Z" fill="#32A1E7"/>
<path d="M11.6684 18.9717L22.4589 24.4212L22.3352 27.6969L9.24426 20.909L11.6684 18.9717Z" fill="#289DE6"/>
<path d="M11.6684 18.9717L22.4589 24.4212L22.3352 27.6969L9.24426 20.909L11.6684 18.9717Z" fill="#289DE6"/>
<path d="M9.24429 20.9092L22.3352 27.6971V33.5152L9.24429 24.788V20.9092Z" fill="#76C1EF"/>
<path d="M9.24429 20.9092L22.3352 27.6971V33.5152L9.24429 24.788V20.9092Z" fill="#76C1EF"/>
<path d="M9.24429 11.697L21.8504 2.96973L23.7898 4.42427L30.0928 8.78791L12.1534 13.6364L9.24429 11.697Z" fill="#ADDAF5"/>
<path d="M15.0625 15.576L33.0019 10.7275L34.9413 12.1821L22.3352 20.4245L15.0625 15.576Z" fill="#ADDAF5"/>
</g>
</g>
<path d="M50.0187 6.6736C50.3337 6.6736 50.5542 6.7436 50.6802 6.8836C50.8132 7.0166 50.8797 7.2336 50.8797 7.5346V15.0001H49.6092V8.7316L47.6877 12.4486H46.9107L45.0522 8.7736V15.0001H43.8867V6.6736H44.6007C44.8317 6.6736 44.9997 6.7121 45.1047 6.7891C45.2097 6.8591 45.3077 6.9921 45.3987 7.1881L47.3832 10.9891L49.6197 6.6736H50.0187ZM55.176 8.2486C55.176 7.6676 55.3265 7.2441 55.6275 6.9781C55.9355 6.7121 56.408 6.5791 57.045 6.5791H59.208C59.838 6.5791 60.307 6.7121 60.615 6.9781C60.923 7.2441 61.077 7.6676 61.077 8.2486V13.4356C61.077 14.0096 60.923 14.4296 60.615 14.6956C60.307 14.9616 59.838 15.0946 59.208 15.0946H57.045C56.408 15.0946 55.9355 14.9616 55.6275 14.6956C55.3265 14.4296 55.176 14.0096 55.176 13.4356V8.2486ZM56.6565 7.7656C56.5655 7.7656 56.52 7.8111 56.52 7.9021V13.7716C56.52 13.8626 56.5655 13.9081 56.6565 13.9081H59.586C59.677 13.9081 59.7225 13.8626 59.7225 13.7716V7.9021C59.7225 7.8111 59.677 7.7656 59.586 7.7656H56.6565ZM68.3844 10.2226C69.0354 10.2226 69.5324 10.3731 69.8754 10.6741C70.2184 10.9681 70.3899 11.4056 70.3899 11.9866V13.2676C70.3899 13.8626 70.2219 14.3141 69.8859 14.6221C69.5569 14.9231 69.0669 15.0666 68.4159 15.0526L65.2029 15.0001V13.8556H68.8674C68.9794 13.8556 69.0354 13.7996 69.0354 13.6876V11.5876C69.0354 11.4756 68.9794 11.4196 68.8674 11.4196H66.9984C66.3474 11.4196 65.8539 11.2761 65.5179 10.9891C65.1889 10.7021 65.0244 10.2611 65.0244 9.6661V8.4271C65.0244 7.8461 65.1959 7.3981 65.5389 7.0831C65.8819 6.7611 66.3789 6.6071 67.0299 6.6211L70.0854 6.6736V7.8181H66.5469C66.4349 7.8181 66.3789 7.8776 66.3789 7.9966V10.0546C66.3789 10.1666 66.4349 10.2226 66.5469 10.2226H68.3844ZM79.1 15.0001L78.6275 12.9106H75.446L74.9105 15.0001H73.682L75.5825 7.9756C75.6805 7.6186 75.782 7.3456 75.887 7.1566C75.992 6.9606 76.1425 6.8241 76.3385 6.7471C76.5345 6.6701 76.8075 6.6351 77.1575 6.6421L78.4595 6.6736L80.423 15.0001H79.1ZM76.7375 7.9546L75.7295 11.7766H78.3755L77.462 7.8076H76.8845C76.8005 7.8076 76.7515 7.8566 76.7375 7.9546ZM84.2869 15.0001V6.6736H85.6099V15.0001H84.2869ZM94.8298 15.0001H92.0053C91.3683 15.0001 90.8958 14.8671 90.5878 14.6011C90.2798 14.3281 90.1258 13.9046 90.1258 13.3306V8.3536C90.1258 7.7726 90.2798 7.3491 90.5878 7.0831C90.8958 6.8101 91.3683 6.6736 92.0053 6.6736H94.8298V7.8601H91.6168C91.5188 7.8601 91.4698 7.9091 91.4698 8.0071V13.6771C91.4698 13.7681 91.5188 13.8136 91.6168 13.8136H94.8298V15.0001ZM103.082 15.0001H98.6617V6.6736H99.9847V13.8556H103.082V15.0001ZM106.34 8.2486C106.34 7.6676 106.491 7.2441 106.792 6.9781C107.1 6.7121 107.572 6.5791 108.209 6.5791H110.372C111.002 6.5791 111.471 6.7121 111.779 6.9781C112.087 7.2441 112.241 7.6676 112.241 8.2486V13.4356C112.241 14.0096 112.087 14.4296 111.779 14.6956C111.471 14.9616 111.002 15.0946 110.372 15.0946H108.209C107.572 15.0946 107.1 14.9616 106.792 14.6956C106.491 14.4296 106.34 14.0096 106.34 13.4356V8.2486ZM107.821 7.7656C107.73 7.7656 107.684 7.8111 107.684 7.9021V13.7716C107.684 13.8626 107.73 13.9081 107.821 13.9081H110.75C110.841 13.9081 110.887 13.8626 110.887 13.7716V7.9021C110.887 7.8111 110.841 7.7656 110.75 7.7656H107.821ZM121.26 15.0001L120.788 12.9106H117.606L117.071 15.0001H115.842L117.743 7.9756C117.841 7.6186 117.942 7.3456 118.047 7.1566C118.152 6.9606 118.303 6.8241 118.499 6.7471C118.695 6.6701 118.968 6.6351 119.318 6.6421L120.62 6.6736L122.583 15.0001H121.26ZM118.898 7.9546L117.89 11.7766H120.536L119.622 7.8076H119.045C118.961 7.8076 118.912 7.8566 118.898 7.9546ZM130.983 6.6736H132.127V15.0001H131.203L127.36 9.0781V15.0001H126.216V6.6736H127.129L130.983 12.6061V6.6736Z" fill="#72BFEE"/>
<path d="M50.6802 6.8836L50.4941 7.05107L50.5034 7.06038L50.6802 6.8836ZM50.8797 15.0001V15.2501H51.1297V15.0001H50.8797ZM49.6092 15.0001H49.3592V15.2501H49.6092V15.0001ZM49.6092 8.7316H49.8592L49.3871 8.6168L49.6092 8.7316ZM47.6877 12.4486V12.6986H47.8399L47.9098 12.5634L47.6877 12.4486ZM46.9107 12.4486L46.6876 12.5614L46.757 12.6986H46.9107V12.4486ZM45.0522 8.7736L45.2753 8.66078L44.8022 8.7736H45.0522ZM45.0522 15.0001V15.2501H45.3022V15.0001H45.0522ZM43.8867 15.0001H43.6367V15.2501H43.8867V15.0001ZM43.8867 6.6736V6.4236H43.6367V6.6736H43.8867ZM45.1047 6.7891L44.9567 6.9909L44.966 6.99711L45.1047 6.7891ZM45.3987 7.1881L45.1717 7.29349L45.1771 7.3038L45.3987 7.1881ZM47.3832 10.9891L47.1616 11.1048L47.384 11.5308L47.6052 11.1041L47.3832 10.9891ZM49.6197 6.6736V6.4236H49.4677L49.3977 6.55857L49.6197 6.6736ZM50.0187 6.9236C50.3086 6.9236 50.4393 6.99017 50.4941 7.05107L50.866 6.71636C50.6688 6.49726 50.3588 6.4236 50.0187 6.4236V6.9236ZM50.5034 7.06038C50.5681 7.125 50.6297 7.2616 50.6297 7.5346H51.1297C51.1297 7.2056 51.0584 6.9082 50.857 6.70682L50.5034 7.06038ZM50.6297 7.5346V15.0001H51.1297V7.5346H50.6297ZM50.8797 14.7501H49.6092V15.2501H50.8797V14.7501ZM49.8592 15.0001V8.7316H49.3592V15.0001H49.8592ZM49.3871 8.6168L47.4656 12.3338L47.9098 12.5634L49.8313 8.8464L49.3871 8.6168ZM47.6877 12.1986H46.9107V12.6986H47.6877V12.1986ZM47.1338 12.3358L45.2753 8.66078L44.8291 8.88642L46.6876 12.5614L47.1338 12.3358ZM44.8022 8.7736V15.0001H45.3022V8.7736H44.8022ZM45.0522 14.7501H43.8867V15.2501H45.0522V14.7501ZM44.1367 15.0001V6.6736H43.6367V15.0001H44.1367ZM43.8867 6.9236H44.6007V6.4236H43.8867V6.9236ZM44.6007 6.9236C44.8149 6.9236 44.9168 6.96159 44.9567 6.9909L45.2526 6.5875C45.0825 6.46281 44.8485 6.4236 44.6007 6.4236V6.9236ZM44.966 6.99711C45.0144 7.02933 45.0879 7.11302 45.1717 7.29349L45.6255 7.08282C45.5273 6.87129 45.4051 6.68887 45.2434 6.58109L44.966 6.99711ZM45.1771 7.3038L47.1616 11.1048L47.6048 10.8734L45.6203 7.0724L45.1771 7.3038ZM47.6052 11.1041L49.8417 6.78863L49.3977 6.55857L47.1613 10.8741L47.6052 11.1041ZM49.6197 6.9236H50.0187V6.4236H49.6197V6.9236ZM55.6275 6.9781L55.4641 6.78888L55.462 6.79077L55.6275 6.9781ZM55.6275 14.6956L55.462 14.8829L55.4641 14.8848L55.6275 14.6956ZM55.426 8.2486C55.426 7.70656 55.5662 7.36594 55.7931 7.16543L55.462 6.79077C55.0869 7.12226 54.926 7.62864 54.926 8.2486H55.426ZM55.7909 7.16731C56.0339 6.95743 56.4358 6.8291 57.045 6.8291V6.3291C56.3803 6.3291 55.8371 6.46676 55.4641 6.78888L55.7909 7.16731ZM57.045 6.8291H59.208V6.3291H57.045V6.8291ZM59.208 6.8291C59.8094 6.8291 60.2082 6.95707 60.4516 7.16731L60.7784 6.78889C60.4058 6.46713 59.8666 6.3291 59.208 6.3291V6.8291ZM60.4516 7.16731C60.6843 7.36826 60.827 7.70821 60.827 8.2486H61.327C61.327 7.62699 61.1617 7.11995 60.7784 6.78889L60.4516 7.16731ZM60.827 8.2486V13.4356H61.327V8.2486H60.827ZM60.827 13.4356C60.827 13.9678 60.6849 14.3049 60.4516 14.5064L60.7784 14.8848C61.1611 14.5543 61.327 14.0514 61.327 13.4356H60.827ZM60.4516 14.5064C60.2082 14.7166 59.8094 14.8446 59.208 14.8446V15.3446C59.8666 15.3446 60.4058 15.2066 60.7784 14.8848L60.4516 14.5064ZM59.208 14.8446H57.045V15.3446H59.208V14.8446ZM57.045 14.8446C56.4358 14.8446 56.0339 14.7163 55.7909 14.5064L55.4641 14.8848C55.8371 15.2069 56.3803 15.3446 57.045 15.3446V14.8446ZM55.7931 14.5083C55.5656 14.3072 55.426 13.9695 55.426 13.4356H54.926C54.926 14.0497 55.0874 14.552 55.462 14.8829L55.7931 14.5083ZM55.426 13.4356V8.2486H54.926V13.4356H55.426ZM56.6565 7.5156C56.5725 7.5156 56.4635 7.53678 56.3774 7.62295C56.2912 7.70912 56.27 7.81806 56.27 7.9021H56.77C56.77 7.89514 56.7716 7.93583 56.7309 7.9765C56.6902 8.01717 56.6495 8.0156 56.6565 8.0156V7.5156ZM56.27 7.9021V13.7716H56.77V7.9021H56.27ZM56.27 13.7716C56.27 13.8556 56.2912 13.9646 56.3774 14.0508C56.4635 14.1369 56.5725 14.1581 56.6565 14.1581V13.6581C56.6495 13.6581 56.6902 13.6565 56.7309 13.6972C56.7716 13.7379 56.77 13.7786 56.77 13.7716H56.27ZM56.6565 14.1581H59.586V13.6581H56.6565V14.1581ZM59.586 14.1581C59.6701 14.1581 59.779 14.1369 59.8652 14.0508C59.9513 13.9646 59.9725 13.8556 59.9725 13.7716H59.4725C59.4725 13.7786 59.4709 13.7379 59.5116 13.6972C59.5523 13.6565 59.593 13.6581 59.586 13.6581V14.1581ZM59.9725 13.7716V7.9021H59.4725V13.7716H59.9725ZM59.9725 7.9021C59.9725 7.81806 59.9513 7.70912 59.8652 7.62295C59.779 7.53678 59.67 7.5156 59.586 7.5156V8.0156C59.593 8.0156 59.5523 8.01717 59.5116 7.9765C59.4709 7.93583 59.4725 7.89514 59.4725 7.9021H59.9725ZM59.586 7.5156H56.6565V8.0156H59.586V7.5156ZM69.8754 10.6741L69.7104 10.862L69.7127 10.8639L69.8754 10.6741ZM68.4159 15.0526L68.4212 14.8027L68.4199 14.8026L68.4159 15.0526ZM65.2029 15.0001H64.9529V15.246L65.1988 15.2501L65.2029 15.0001ZM65.2029 13.8556V13.6056H64.9529V13.8556H65.2029ZM65.5179 10.9891L65.3535 11.1775L65.3555 11.1792L65.5179 10.9891ZM65.5389 7.0831L65.708 7.26724L65.71 7.26537L65.5389 7.0831ZM67.0299 6.6211L67.0245 6.87104L67.0256 6.87106L67.0299 6.6211ZM70.0854 6.6736H70.3354V6.42786L70.0897 6.42364L70.0854 6.6736ZM70.0854 7.8181V8.0681H70.3354V7.8181H70.0854ZM68.3844 10.4726C69.0003 10.4726 69.4291 10.6152 69.7104 10.862L70.0403 10.4862C69.6355 10.131 69.0704 9.9726 68.3844 9.9726V10.4726ZM69.7127 10.8639C69.9852 11.0976 70.1399 11.4562 70.1399 11.9866H70.6399C70.6399 11.355 70.4515 10.8386 70.0381 10.4843L69.7127 10.8639ZM70.1399 11.9866V13.2676H70.6399V11.9866H70.1399ZM70.1399 13.2676C70.1399 13.8151 69.9867 14.1905 69.7169 14.4378L70.0546 14.8066C70.4568 14.4379 70.6399 13.9101 70.6399 13.2676H70.1399ZM69.7169 14.4378C69.4533 14.679 69.0373 14.8159 68.4212 14.8027L68.4105 15.3025C69.0964 15.3173 69.6602 15.1674 70.0546 14.8066L69.7169 14.4378ZM68.4199 14.8026L65.2069 14.7501L65.1988 15.2501L68.4118 15.3026L68.4199 14.8026ZM65.4529 15.0001V13.8556H64.9529V15.0001H65.4529ZM65.2029 14.1056H68.8674V13.6056H65.2029V14.1056ZM68.8674 14.1056C68.9619 14.1056 69.0787 14.0818 69.1701 13.9904C69.2616 13.899 69.2854 13.7821 69.2854 13.6876H68.7854C68.7854 13.7051 68.7812 13.6722 68.8166 13.6368C68.852 13.6014 68.8848 13.6056 68.8674 13.6056V14.1056ZM69.2854 13.6876V11.5876H68.7854V13.6876H69.2854ZM69.2854 11.5876C69.2854 11.4931 69.2616 11.3762 69.1701 11.2848C69.0787 11.1934 68.9619 11.1696 68.8674 11.1696V11.6696C68.8848 11.6696 68.852 11.6738 68.8166 11.6384C68.7812 11.603 68.7854 11.5701 68.7854 11.5876H69.2854ZM68.8674 11.1696H66.9984V11.6696H68.8674V11.1696ZM66.9984 11.1696C66.3795 11.1696 65.9538 11.0326 65.6802 10.799L65.3555 11.1792C65.754 11.5196 66.3152 11.6696 66.9984 11.6696V11.1696ZM65.6822 10.8007C65.4254 10.5767 65.2744 10.2163 65.2744 9.6661H64.7744C64.7744 10.3059 64.9523 10.8275 65.3535 11.1775L65.6822 10.8007ZM65.2744 9.6661V8.4271H64.7744V9.6661H65.2744ZM65.2744 8.4271C65.2744 7.89753 65.4288 7.52365 65.708 7.26724L65.3698 6.89897C64.963 7.27256 64.7744 7.79467 64.7744 8.4271H65.2744ZM65.71 7.26537C65.9894 7.00303 66.4134 6.8579 67.0245 6.87104L67.0352 6.37116C66.3443 6.3563 65.7743 6.51917 65.3677 6.90083L65.71 7.26537ZM67.0256 6.87106L70.0811 6.92356L70.0897 6.42364L67.0352 6.37116L67.0256 6.87106ZM69.8354 6.6736V7.8181H70.3354V6.6736H69.8354ZM70.0854 7.5681H66.5469V8.0681H70.0854V7.5681ZM66.5469 7.5681C66.4483 7.5681 66.3295 7.595 66.2388 7.69138C66.1508 7.78492 66.1289 7.90221 66.1289 7.9966H66.6289C66.6289 7.97199 66.6349 8.00003 66.6029 8.03407C66.5682 8.07095 66.5334 8.0681 66.5469 8.0681V7.5681ZM66.1289 7.9966V10.0546H66.6289V7.9966H66.1289ZM66.1289 10.0546C66.1289 10.1491 66.1527 10.266 66.2441 10.3574C66.3355 10.4488 66.4523 10.4726 66.5469 10.4726V9.9726C66.5294 9.9726 66.5622 9.9684 66.5976 10.0038C66.6331 10.0392 66.6289 10.0721 66.6289 10.0546H66.1289ZM66.5469 10.4726H68.3844V9.9726H66.5469V10.4726ZM79.1 15.0001L78.8562 15.0552L78.9002 15.2501H79.1V15.0001ZM78.6275 12.9106L78.8714 12.8555L78.8273 12.6606H78.6275V12.9106ZM75.446 12.9106V12.6606H75.252L75.2038 12.8485L75.446 12.9106ZM74.9105 15.0001V15.2501H75.1045L75.1527 15.0622L74.9105 15.0001ZM73.682 15.0001L73.4407 14.9348L73.3554 15.2501H73.682V15.0001ZM75.887 7.1566L76.1056 7.27802L76.1074 7.27465L75.887 7.1566ZM77.1575 6.6421L77.1636 6.39217L77.1625 6.39215L77.1575 6.6421ZM78.4595 6.6736L78.7028 6.61622L78.6585 6.42834L78.4656 6.42367L78.4595 6.6736ZM80.423 15.0001V15.2501H80.7388L80.6663 14.9427L80.423 15.0001ZM76.7375 7.9546L76.9793 8.01835L76.983 8.00432L76.985 7.98996L76.7375 7.9546ZM75.7295 11.7766L75.4878 11.7128L75.405 12.0266H75.7295V11.7766ZM78.3755 11.7766V12.0266H78.6896L78.6191 11.7205L78.3755 11.7766ZM77.462 7.8076L77.7056 7.75153L77.661 7.5576H77.462V7.8076ZM79.3439 14.945L78.8714 12.8555L78.3837 12.9657L78.8562 15.0552L79.3439 14.945ZM78.6275 12.6606H75.446V13.1606H78.6275V12.6606ZM75.2038 12.8485L74.6683 14.938L75.1527 15.0622L75.6882 12.9727L75.2038 12.8485ZM74.9105 14.7501H73.682V15.2501H74.9105V14.7501ZM73.9233 15.0654L75.8238 8.04089L75.3414 7.90942L73.4407 14.9348L73.9233 15.0654ZM75.8238 8.04089C75.9197 7.69158 76.0147 7.44153 76.1056 7.27802L75.6685 7.03519C75.5493 7.24968 75.4415 7.54473 75.3414 7.90942L75.8238 8.04089ZM76.1074 7.27465C76.1861 7.12779 76.2924 7.03381 76.4299 6.97979L76.2471 6.51441C75.9926 6.61439 75.798 6.79341 75.6666 7.03854L76.1074 7.27465ZM76.4299 6.97979C76.5815 6.92024 76.8165 6.88533 77.1525 6.89205L77.1625 6.39215C76.7985 6.38487 76.4875 6.41995 76.2471 6.51441L76.4299 6.97979ZM77.1525 6.89205L78.4535 6.92353L78.4656 6.42367L77.1636 6.39217L77.1525 6.89205ZM78.2162 6.73098L80.1797 15.0575L80.6663 14.9427L78.7028 6.61622L78.2162 6.73098ZM80.423 14.7501H79.1V15.2501H80.423V14.7501ZM76.4958 7.89085L75.4878 11.7128L75.9713 11.8404L76.9793 8.01835L76.4958 7.89085ZM75.7295 12.0266H78.3755V11.5266H75.7295V12.0266ZM78.6191 11.7205L77.7056 7.75153L77.2184 7.86367L78.1319 11.8327L78.6191 11.7205ZM77.462 7.5576H76.8845V8.0576H77.462V7.5576ZM76.8845 7.5576C76.7912 7.5576 76.689 7.58655 76.608 7.66757C76.5319 7.74363 76.5015 7.83892 76.49 7.91924L76.985 7.98996C76.9875 7.97228 76.9886 7.99407 76.9615 8.02113C76.9476 8.03505 76.931 8.04528 76.9145 8.05137C76.8989 8.05714 76.8877 8.0576 76.8845 8.0576V7.5576ZM84.2869 15.0001H84.0369V15.2501H84.2869V15.0001ZM84.2869 6.6736V6.4236H84.0369V6.6736H84.2869ZM85.6099 6.6736H85.8599V6.4236H85.6099V6.6736ZM85.6099 15.0001V15.2501H85.8599V15.0001H85.6099ZM84.5369 15.0001V6.6736H84.0369V15.0001H84.5369ZM84.2869 6.9236H85.6099V6.4236H84.2869V6.9236ZM85.3599 6.6736V15.0001H85.8599V6.6736H85.3599ZM85.6099 14.7501H84.2869V15.2501H85.6099V14.7501ZM94.8298 15.0001V15.2501H95.0798V15.0001H94.8298ZM90.5878 14.6011L90.4219 14.7882L90.4244 14.7903L90.5878 14.6011ZM90.5878 7.0831L90.7512 7.27232L90.7536 7.27019L90.5878 7.0831ZM94.8298 6.6736H95.0798V6.4236H94.8298V6.6736ZM94.8298 7.8601V8.1101H95.0798V7.8601H94.8298ZM94.8298 13.8136H95.0798V13.5636H94.8298V13.8136ZM94.8298 14.7501H92.0053V15.2501H94.8298V14.7501ZM92.0053 14.7501C91.396 14.7501 90.9942 14.6218 90.7512 14.4119L90.4244 14.7903C90.7973 15.1124 91.3405 15.2501 92.0053 15.2501V14.7501ZM90.7536 14.414C90.5177 14.2049 90.3758 13.8623 90.3758 13.3306H89.8758C89.8758 13.9469 90.0418 14.4513 90.4219 14.7882L90.7536 14.414ZM90.3758 13.3306V8.3536H89.8758V13.3306H90.3758ZM90.3758 8.3536C90.3758 7.81321 90.5185 7.47326 90.7512 7.27232L90.4244 6.89389C90.041 7.22495 89.8758 7.73199 89.8758 8.3536H90.3758ZM90.7536 7.27019C90.9965 7.05488 91.3973 6.9236 92.0053 6.9236V6.4236C91.3392 6.4236 90.795 6.56532 90.4219 6.89601L90.7536 7.27019ZM92.0053 6.9236H94.8298V6.4236H92.0053V6.9236ZM94.5798 6.6736V7.8601H95.0798V6.6736H94.5798ZM94.8298 7.6101H91.6168V8.1101H94.8298V7.6101ZM91.6168 7.6101C91.5292 7.6101 91.4177 7.63215 91.3297 7.72007C91.2418 7.80799 91.2198 7.91956 91.2198 8.0071H91.7198C91.7198 7.99664 91.7222 8.03471 91.6833 8.07363C91.6444 8.11255 91.6063 8.1101 91.6168 8.1101V7.6101ZM91.2198 8.0071V13.6771H91.7198V8.0071H91.2198ZM91.2198 13.6771C91.2198 13.7661 91.2446 13.8774 91.3364 13.9627C91.4247 14.0447 91.5336 14.0636 91.6168 14.0636V13.5636C91.6019 13.5636 91.6373 13.5598 91.6766 13.5963C91.7194 13.636 91.7198 13.6791 91.7198 13.6771H91.2198ZM91.6168 14.0636H94.8298V13.5636H91.6168V14.0636ZM94.5798 13.8136V15.0001H95.0798V13.8136H94.5798ZM103.082 15.0001V15.2501H103.332V15.0001H103.082ZM98.6617 15.0001H98.4117V15.2501H98.6617V15.0001ZM98.6617 6.6736V6.4236H98.4117V6.6736H98.6617ZM99.9847 6.6736H100.235V6.4236H99.9847V6.6736ZM99.9847 13.8556H99.7347V14.1056H99.9847V13.8556ZM103.082 13.8556H103.332V13.6056H103.082V13.8556ZM103.082 14.7501H98.6617V15.2501H103.082V14.7501ZM98.9117 15.0001V6.6736H98.4117V15.0001H98.9117ZM98.6617 6.9236H99.9847V6.4236H98.6617V6.9236ZM99.7347 6.6736V13.8556H100.235V6.6736H99.7347ZM99.9847 14.1056H103.082V13.6056H99.9847V14.1056ZM102.832 13.8556V15.0001H103.332V13.8556H102.832ZM106.792 6.9781L106.628 6.78888L106.626 6.79077L106.792 6.9781ZM106.792 14.6956L106.626 14.8829L106.628 14.8848L106.792 14.6956ZM106.59 8.2486C106.59 7.70656 106.73 7.36594 106.957 7.16543L106.626 6.79077C106.251 7.12226 106.09 7.62864 106.09 8.2486H106.59ZM106.955 7.16731C107.198 6.95743 107.6 6.8291 108.209 6.8291V6.3291C107.544 6.3291 107.001 6.46676 106.628 6.78888L106.955 7.16731ZM108.209 6.8291H110.372V6.3291H108.209V6.8291ZM110.372 6.8291C110.974 6.8291 111.372 6.95707 111.616 7.16731L111.943 6.78889C111.57 6.46713 111.031 6.3291 110.372 6.3291V6.8291ZM111.616 7.16731C111.848 7.36826 111.991 7.70821 111.991 8.2486H112.491C112.491 7.62699 112.326 7.11995 111.943 6.78889L111.616 7.16731ZM111.991 8.2486V13.4356H112.491V8.2486H111.991ZM111.991 13.4356C111.991 13.9678 111.849 14.3049 111.616 14.5064L111.943 14.8848C112.325 14.5543 112.491 14.0514 112.491 13.4356H111.991ZM111.616 14.5064C111.372 14.7166 110.974 14.8446 110.372 14.8446V15.3446C111.031 15.3446 111.57 15.2066 111.943 14.8848L111.616 14.5064ZM110.372 14.8446H108.209V15.3446H110.372V14.8446ZM108.209 14.8446C107.6 14.8446 107.198 14.7163 106.955 14.5064L106.628 14.8848C107.001 15.2069 107.544 15.3446 108.209 15.3446V14.8446ZM106.957 14.5083C106.73 14.3072 106.59 13.9695 106.59 13.4356H106.09C106.09 14.0497 106.252 14.552 106.626 14.8829L106.957 14.5083ZM106.59 13.4356V8.2486H106.09V13.4356H106.59ZM107.821 7.5156C107.737 7.5156 107.628 7.53678 107.542 7.62295C107.455 7.70912 107.434 7.81806 107.434 7.9021H107.934C107.934 7.89514 107.936 7.93583 107.895 7.9765C107.854 8.01717 107.814 8.0156 107.821 8.0156V7.5156ZM107.434 7.9021V13.7716H107.934V7.9021H107.434ZM107.434 13.7716C107.434 13.8556 107.455 13.9646 107.542 14.0508C107.628 14.1369 107.737 14.1581 107.821 14.1581V13.6581C107.814 13.6581 107.854 13.6565 107.895 13.6972C107.936 13.7379 107.934 13.7786 107.934 13.7716H107.434ZM107.821 14.1581H110.75V13.6581H107.821V14.1581ZM110.75 14.1581C110.834 14.1581 110.943 14.1369 111.029 14.0508C111.116 13.9646 111.137 13.8556 111.137 13.7716H110.637C110.637 13.7786 110.635 13.7379 110.676 13.6972C110.716 13.6565 110.757 13.6581 110.75 13.6581V14.1581ZM111.137 13.7716V7.9021H110.637V13.7716H111.137ZM111.137 7.9021C111.137 7.81806 111.116 7.70912 111.029 7.62295C110.943 7.53678 110.834 7.5156 110.75 7.5156V8.0156C110.757 8.0156 110.716 8.01717 110.676 7.9765C110.635 7.93583 110.637 7.89514 110.637 7.9021H111.137ZM110.75 7.5156H107.821V8.0156H110.75V7.5156ZM121.26 15.0001L121.016 15.0552L121.06 15.2501H121.26V15.0001ZM120.788 12.9106L121.031 12.8555L120.987 12.6606H120.788V12.9106ZM117.606 12.9106V12.6606H117.412L117.364 12.8485L117.606 12.9106ZM117.071 15.0001V15.2501H117.265L117.313 15.0622L117.071 15.0001ZM115.842 15.0001L115.601 14.9348L115.515 15.2501H115.842V15.0001ZM118.047 7.1566L118.266 7.27802L118.267 7.27465L118.047 7.1566ZM120.62 6.6736L120.863 6.61622L120.819 6.42834L120.626 6.42367L120.62 6.6736ZM122.583 15.0001V15.2501H122.899L122.826 14.9427L122.583 15.0001ZM118.898 7.9546L119.139 8.01835L119.143 8.00432L119.145 7.98996L118.898 7.9546ZM117.89 11.7766L117.648 11.7128L117.565 12.0266H117.89V11.7766ZM120.536 11.7766V12.0266H120.85L120.779 11.7205L120.536 11.7766ZM119.622 7.8076L119.866 7.75153L119.821 7.5576H119.622V7.8076ZM121.504 14.945L121.031 12.8555L120.544 12.9657L121.016 15.0552L121.504 14.945ZM120.788 12.6606H117.606V13.1606H120.788V12.6606ZM117.364 12.8485L116.828 14.938L117.313 15.0622L117.848 12.9727L117.364 12.8485ZM117.071 14.7501H115.842V15.2501H117.071V14.7501ZM116.083 15.0654L117.984 8.04089L117.501 7.90942L115.601 14.9348L116.083 15.0654ZM117.984 8.04089C118.08 7.69158 118.175 7.44153 118.266 7.27802L117.828 7.03519C117.709 7.24968 117.602 7.54473 117.501 7.90942L117.984 8.04089ZM118.267 7.27465C118.346 7.12779 118.452 7.03381 118.59 6.97979L118.407 6.51441C118.153 6.61439 117.958 6.79341 117.827 7.03854L118.267 7.27465ZM118.59 6.97979C118.742 6.92024 118.977 6.88533 119.313 6.89205L119.324 6.39217C118.96 6.38489 118.648 6.41995 118.407 6.51441L118.59 6.97979ZM119.311 6.89203L120.613 6.92353L120.626 6.42367L119.324 6.39217L119.311 6.89203ZM120.376 6.73098L122.34 15.0575L122.826 14.9427L120.863 6.61622L120.376 6.73098ZM122.583 14.7501H121.26V15.2501H122.583V14.7501ZM118.656 7.89085L117.648 11.7128L118.131 11.8404L119.139 8.01835L118.656 7.89085ZM117.89 12.0266H120.536V11.5266H117.89V12.0266ZM120.779 11.7205L119.866 7.75153L119.378 7.86367L120.292 11.8327L120.779 11.7205ZM119.622 7.5576H119.045V8.0576H119.622V7.5576ZM119.045 7.5576C118.951 7.5576 118.849 7.58655 118.768 7.66757C118.692 7.74363 118.662 7.83892 118.65 7.91924L119.145 7.98996C119.148 7.97228 119.149 7.99407 119.122 8.02113C119.108 8.03505 119.091 8.04528 119.075 8.05137C119.059 8.05714 119.048 8.0576 119.045 8.0576V7.5576ZM130.983 6.6736V6.4236H130.733V6.6736H130.983ZM132.127 6.6736H132.377V6.4236H132.127V6.6736ZM132.127 15.0001V15.2501H132.377V15.0001H132.127ZM131.203 15.0001L130.994 15.1362L131.068 15.2501H131.203V15.0001ZM127.36 9.0781L127.57 8.94201L127.11 8.2336V9.0781H127.36ZM127.36 15.0001V15.2501H127.61V15.0001H127.36ZM126.216 15.0001H125.966V15.2501H126.216V15.0001ZM126.216 6.6736V6.4236H125.966V6.6736H126.216ZM127.129 6.6736L127.339 6.53742L127.265 6.4236H127.129V6.6736ZM130.983 12.6061L130.773 12.7423L131.233 13.4499V12.6061H130.983ZM130.983 6.9236H132.127V6.4236H130.983V6.9236ZM131.877 6.6736V15.0001H132.377V6.6736H131.877ZM132.127 14.7501H131.203V15.2501H132.127V14.7501ZM131.413 14.864L127.57 8.94201L127.151 9.21419L130.994 15.1362L131.413 14.864ZM127.11 9.0781V15.0001H127.61V9.0781H127.11ZM127.36 14.7501H126.216V15.2501H127.36V14.7501ZM126.466 15.0001V6.6736H125.966V15.0001H126.466ZM126.216 6.9236H127.129V6.4236H126.216V6.9236ZM126.92 6.80978L130.773 12.7423L131.193 12.4699L127.339 6.53742L126.92 6.80978ZM131.233 12.6061V6.6736H130.733V12.6061H131.233Z" fill="#72BFEE"/>
<path d="M65.4964 23.6243H66.0359V27.9533H65.4964V23.6243ZM65.8669 25.4118H66.9004V25.8603H65.8669V25.4118ZM62.3764 28.9348H66.2959V29.3768H62.3764V28.9348ZM62.3764 27.5113H62.9094V29.1103H62.3764V27.5113ZM63.1109 24.0403C63.4056 24.0403 63.6677 24.1031 63.8974 24.2288C64.1271 24.3501 64.3091 24.5191 64.4434 24.7358C64.5777 24.9525 64.6449 25.2038 64.6449 25.4898C64.6449 25.7671 64.5777 26.0163 64.4434 26.2373C64.3091 26.4583 64.1271 26.6316 63.8974 26.7573C63.6677 26.8786 63.4056 26.9393 63.1109 26.9393C62.8206 26.9393 62.5584 26.8786 62.3244 26.7573C62.0947 26.6316 61.9127 26.4583 61.7784 26.2373C61.6441 26.0163 61.5769 25.7671 61.5769 25.4898C61.5769 25.2038 61.6441 24.9525 61.7784 24.7358C61.9127 24.5191 62.0947 24.3501 62.3244 24.2288C62.5584 24.1031 62.8206 24.0403 63.1109 24.0403ZM63.1109 24.5083C62.9202 24.5083 62.7491 24.5495 62.5974 24.6318C62.4457 24.7141 62.3244 24.829 62.2334 24.9763C62.1467 25.1236 62.1034 25.2948 62.1034 25.4898C62.1034 25.6805 62.1467 25.8495 62.2334 25.9968C62.3244 26.1441 62.4457 26.259 62.5974 26.3413C62.7491 26.4236 62.9202 26.4648 63.1109 26.4648C63.3016 26.4648 63.4727 26.4236 63.6244 26.3413C63.7804 26.259 63.9017 26.1441 63.9884 25.9968C64.0794 25.8495 64.1249 25.6805 64.1249 25.4898C64.1249 25.2948 64.0794 25.1236 63.9884 24.9763C63.9017 24.829 63.7804 24.7141 63.6244 24.6318C63.4727 24.5495 63.3016 24.5083 63.1109 24.5083ZM71.5734 25.2493H73.0619V25.6913H71.5734V25.2493ZM72.7564 23.6308H73.2959V27.9403H72.7564V23.6308ZM69.5454 28.9348H73.4584V29.3768H69.5454V28.9348ZM69.5454 27.5568H70.0784V29.1558H69.5454V27.5568ZM69.9549 24.3588H70.3969V24.8333C70.3969 25.1886 70.3275 25.5245 70.1889 25.8408C70.0545 26.1528 69.8639 26.4258 69.6169 26.6598C69.3699 26.8895 69.0839 27.0671 68.7589 27.1928L68.4794 26.7573C68.696 26.6793 68.8932 26.5753 69.0709 26.4453C69.2529 26.3153 69.411 26.1658 69.5454 25.9968C69.6797 25.8278 69.7815 25.6436 69.8509 25.4443C69.9202 25.245 69.9549 25.0413 69.9549 24.8333V24.3588ZM70.0589 24.3588H70.5009V24.8333C70.5009 25.0846 70.5594 25.3295 70.6764 25.5678C70.7934 25.8061 70.9602 26.0185 71.1769 26.2048C71.3935 26.3868 71.6427 26.5276 71.9244 26.6273L71.6514 27.0563C71.3307 26.9393 71.0512 26.7703 70.8129 26.5493C70.5745 26.324 70.3882 26.064 70.2539 25.7693C70.1239 25.4746 70.0589 25.1626 70.0589 24.8333V24.3588ZM68.6484 24.1053H71.7879V24.5473H68.6484V24.1053ZM79.4704 23.6308H80.0099V28.0378H79.4704V23.6308ZM79.8409 25.5613H80.8744V26.0098H79.8409V25.5613ZM75.4599 24.3458H78.9309V24.7813H75.4599V24.3458ZM77.1954 25.0998C77.4727 25.0998 77.7175 25.1475 77.9299 25.2428C78.1422 25.3338 78.3069 25.4616 78.4239 25.6263C78.5409 25.7866 78.5994 25.9773 78.5994 26.1983C78.5994 26.4193 78.5409 26.6121 78.4239 26.7768C78.3069 26.9371 78.1422 27.0628 77.9299 27.1538C77.7175 27.2448 77.4727 27.2903 77.1954 27.2903C76.918 27.2903 76.6732 27.2448 76.4609 27.1538C76.2485 27.0628 76.0817 26.9371 75.9604 26.7768C75.8434 26.6121 75.7849 26.4193 75.7849 26.1983C75.7849 25.9773 75.8434 25.7866 75.9604 25.6263C76.0817 25.4616 76.2485 25.3338 76.4609 25.2428C76.6732 25.1475 76.918 25.0998 77.1954 25.0998ZM77.1954 25.5223C76.931 25.5223 76.7165 25.5851 76.5519 25.7108C76.3872 25.8321 76.3049 25.9946 76.3049 26.1983C76.3049 26.402 76.3872 26.5645 76.5519 26.6858C76.7165 26.8071 76.931 26.8678 77.1954 26.8678C77.464 26.8678 77.6785 26.8071 77.8389 26.6858C78.0035 26.5645 78.0859 26.402 78.0859 26.1983C78.0859 25.9946 78.0035 25.8321 77.8389 25.7108C77.6785 25.5851 77.464 25.5223 77.1954 25.5223ZM76.9289 23.6308H77.4684V24.5668H76.9289V23.6308ZM76.3504 28.9348H80.2699V29.3768H76.3504V28.9348ZM76.3504 27.6868H76.8834V29.1168H76.3504V27.6868ZM85.2265 28.9998V24.2353H86.585C86.9403 24.2353 87.2523 24.2808 87.521 24.3718C87.7896 24.4585 87.9976 24.6036 88.145 24.8073C88.2923 25.011 88.366 25.2861 88.366 25.6328C88.366 25.9665 88.2923 26.2416 88.145 26.4583C87.9976 26.675 87.7918 26.8375 87.5275 26.9458C87.2631 27.0498 86.9576 27.1018 86.611 27.1018H85.8245V28.9998H85.2265ZM85.8245 26.6143H86.533C86.949 26.6143 87.2588 26.5363 87.4625 26.3803C87.6661 26.2243 87.768 25.9751 87.768 25.6328C87.768 25.2861 87.6618 25.0478 87.4495 24.9178C87.2415 24.7878 86.9273 24.7228 86.507 24.7228H85.8245V26.6143ZM89.9768 28.9998V28.6488C90.4448 28.1851 90.8413 27.7778 91.1663 27.4268C91.4913 27.0715 91.7383 26.753 91.9073 26.4713C92.0763 26.1853 92.1608 25.9166 92.1608 25.6653C92.1608 25.4876 92.1283 25.3316 92.0633 25.1973C92.0026 25.0586 91.9073 24.9525 91.7773 24.8788C91.6473 24.8008 91.4826 24.7618 91.2833 24.7618C91.0883 24.7618 90.9063 24.816 90.7373 24.9243C90.5726 25.0326 90.4253 25.1626 90.2953 25.3143L89.9508 24.9828C90.1414 24.7661 90.3473 24.595 90.5683 24.4693C90.7893 24.3436 91.0514 24.2808 91.3548 24.2808C91.6408 24.2808 91.8856 24.3371 92.0893 24.4498C92.2973 24.5625 92.4576 24.7206 92.5703 24.9243C92.6873 25.128 92.7458 25.3663 92.7458 25.6393C92.7458 25.9296 92.6634 26.2243 92.4988 26.5233C92.3341 26.8223 92.1088 27.1365 91.8228 27.4658C91.5368 27.7908 91.2118 28.1461 90.8478 28.5318C90.9691 28.5231 91.0991 28.5145 91.2378 28.5058C91.3764 28.4928 91.5064 28.4863 91.6278 28.4863H92.9733V28.9998H89.9768ZM94.9602 28.9998V24.2353H96.3187C96.6741 24.2353 96.9861 24.2808 97.2547 24.3718C97.5234 24.4585 97.7314 24.6036 97.8787 24.8073C98.0261 25.011 98.0997 25.2861 98.0997 25.6328C98.0997 25.9665 98.0261 26.2416 97.8787 26.4583C97.7314 26.675 97.5256 26.8375 97.2612 26.9458C96.9969 27.0498 96.6914 27.1018 96.3447 27.1018H95.5582V28.9998H94.9602ZM95.5582 26.6143H96.2667C96.6827 26.6143 96.9926 26.5363 97.1962 26.3803C97.3999 26.2243 97.5017 25.9751 97.5017 25.6328C97.5017 25.2861 97.3956 25.0478 97.1832 24.9178C96.9752 24.7878 96.6611 24.7228 96.2407 24.7228H95.5582V26.6143ZM106.683 23.6243H107.196V29.5068H106.683V23.6243ZM105.688 25.9838H106.819V26.4258H105.688V25.9838ZM105.35 23.7543H105.851V29.2013H105.35V23.7543ZM102.419 27.6023H102.802C103.093 27.6023 103.355 27.6001 103.589 27.5958C103.827 27.5871 104.052 27.5698 104.265 27.5438C104.481 27.5178 104.702 27.481 104.928 27.4333L104.98 27.8818C104.746 27.9295 104.518 27.9663 104.297 27.9923C104.081 28.0183 103.851 28.0356 103.608 28.0443C103.37 28.053 103.101 28.0573 102.802 28.0573H102.419V27.6023ZM102.419 24.3393H104.603V24.7813H102.958V27.8103H102.419V24.3393ZM111.583 26.5558H112.116V27.4398H111.583V26.5558ZM109.204 26.2373H114.502V26.6468H109.204V26.2373ZM111.583 23.5918H112.116V24.3003H111.583V23.5918ZM111.557 24.3523H112.032V24.4433C112.032 24.6773 111.969 24.8831 111.843 25.0608C111.718 25.2385 111.544 25.3901 111.323 25.5158C111.102 25.6415 110.847 25.7433 110.556 25.8213C110.27 25.895 109.965 25.9448 109.64 25.9708L109.477 25.5613C109.768 25.544 110.038 25.5071 110.29 25.4508C110.541 25.3901 110.762 25.3121 110.953 25.2168C111.143 25.1215 111.291 25.0088 111.395 24.8788C111.503 24.7488 111.557 24.6036 111.557 24.4433V24.3523ZM111.674 24.3523H112.142V24.4433C112.142 24.6036 112.196 24.7488 112.305 24.8788C112.413 25.0088 112.563 25.1215 112.753 25.2168C112.944 25.3121 113.163 25.3901 113.41 25.4508C113.661 25.5071 113.932 25.544 114.222 25.5613L114.06 25.9708C113.735 25.9448 113.427 25.895 113.137 25.8213C112.851 25.7433 112.597 25.6415 112.376 25.5158C112.16 25.3901 111.988 25.2385 111.863 25.0608C111.737 24.8831 111.674 24.6773 111.674 24.4433V24.3523ZM109.744 24.1378H113.969V24.5538H109.744V24.1378ZM109.841 27.1863H113.826V28.4733H110.381V29.1818H109.854V28.0898H113.299V27.5893H109.841V27.1863ZM109.854 29.0258H114.001V29.4418H109.854V29.0258Z" fill="#72BFEE"/>
<path d="M65.4964 23.6245V23.4495H65.3214V23.6245H65.4964ZM66.0359 23.6245H66.2109V23.4495H66.0359V23.6245ZM66.0359 27.9535V28.1285H66.2109V27.9535H66.0359ZM65.4964 27.9535H65.3214V28.1285H65.4964V27.9535ZM65.8669 25.412V25.237H65.6919V25.412H65.8669ZM66.9004 25.412H67.0754V25.237H66.9004V25.412ZM66.9004 25.8605V26.0355H67.0754V25.8605H66.9004ZM65.8669 25.8605H65.6919V26.0355H65.8669V25.8605ZM62.3764 28.935V28.76H62.2014V28.935H62.3764ZM66.2959 28.935H66.4709V28.76H66.2959V28.935ZM66.2959 29.377V29.552H66.4709V29.377H66.2959ZM62.3764 29.377H62.2014V29.552H62.3764V29.377ZM62.3764 27.5115V27.3365H62.2014V27.5115H62.3764ZM62.9094 27.5115H63.0844V27.3365H62.9094V27.5115ZM62.9094 29.1105V29.2855H63.0844V29.1105H62.9094ZM62.3764 29.1105H62.2014V29.2855H62.3764V29.1105ZM63.8974 24.229L63.8134 24.3825L63.8156 24.3837L63.8974 24.229ZM63.8974 26.7575L63.9791 26.9123L63.9814 26.911L63.8974 26.7575ZM62.3244 26.7575L62.2404 26.9111L62.2438 26.9129L62.3244 26.7575ZM62.3244 24.229L62.4061 24.3837L62.4072 24.3832L62.3244 24.229ZM62.2334 24.9765L62.0845 24.8845L62.0826 24.8878L62.2334 24.9765ZM62.2334 25.997L62.0825 26.0857L62.0845 26.089L62.2334 25.997ZM63.6244 26.3415L63.5427 26.1867L63.5409 26.1877L63.6244 26.3415ZM63.9884 25.997L63.8395 25.905L63.8376 25.9083L63.9884 25.997ZM63.9884 24.9765L63.8375 25.0652L63.8395 25.0685L63.9884 24.9765ZM63.6244 24.632L63.5409 24.7858L63.5427 24.7868L63.6244 24.632ZM65.4964 23.7995H66.0359V23.4495H65.4964V23.7995ZM65.8609 23.6245V27.9535H66.2109V23.6245H65.8609ZM66.0359 27.7785H65.4964V28.1285H66.0359V27.7785ZM65.6714 27.9535V23.6245H65.3214V27.9535H65.6714ZM65.8669 25.587H66.9004V25.237H65.8669V25.587ZM66.7254 25.412V25.8605H67.0754V25.412H66.7254ZM66.9004 25.6855H65.8669V26.0355H66.9004V25.6855ZM66.0419 25.8605V25.412H65.6919V25.8605H66.0419ZM62.3764 29.1105L66.2959 29.11V28.76H62.3764V29.1105ZM66.1209 28.935V29.377H66.4709V28.935H66.1209ZM66.2959 29.202H62.3764V29.552H66.2959V29.202ZM62.5514 29.377V28.935H62.2014V29.377H62.5514ZM62.3764 27.6865H62.9094V27.3365H62.3764V27.6865ZM62.7344 27.5115V29.1105H63.0844V27.5115H62.7344ZM62.9094 28.9355L62.3764 28.935V29.2855H62.9094V28.9355ZM62.5514 29.1105V27.5115H62.2014V29.1105H62.5514ZM63.1109 24.2155C63.3799 24.2155 63.6126 24.2726 63.8134 24.3825L63.9814 24.0755C63.7229 23.934 63.4312 23.8655 63.1109 23.8655V24.2155ZM63.8156 24.3837C64.0184 24.4908 64.177 24.6385 64.2947 24.8282L64.5921 24.6438C64.4411 24.4002 64.2357 24.2098 63.9791 24.0743L63.8156 24.3837ZM64.2947 24.8282C64.4098 25.0139 64.4699 25.2325 64.4699 25.49H64.8199C64.8199 25.1755 64.7457 24.8914 64.5921 24.6438L64.2947 24.8282ZM64.4699 25.49C64.4699 25.7377 64.4103 25.955 64.2938 26.1466L64.5929 26.3284C64.7451 26.078 64.8199 25.797 64.8199 25.49H64.4699ZM64.2938 26.1466C64.1757 26.341 64.0164 26.4929 63.8134 26.604L63.9814 26.911C64.2377 26.7708 64.4424 26.576 64.5929 26.3284L64.2938 26.1466ZM63.8156 26.6028C63.6144 26.7091 63.3809 26.7645 63.1109 26.7645V27.1145C63.4302 27.1145 63.7211 27.0487 63.9791 26.9123L63.8156 26.6028ZM63.1109 26.7645C62.8457 26.7645 62.6116 26.7093 62.4049 26.6021L62.2438 26.9129C62.5052 27.0484 62.7954 27.1145 63.1109 27.1145V26.7645ZM62.4084 26.604C62.2053 26.4929 62.0461 26.341 61.9279 26.1466L61.6288 26.3284C61.7794 26.576 61.9841 26.7709 62.2404 26.9111L62.4084 26.604ZM61.9279 26.1466C61.8115 25.955 61.7519 25.7377 61.7519 25.49H61.4019C61.4019 25.797 61.4767 26.078 61.6288 26.3284L61.9279 26.1466ZM61.7519 25.49C61.7519 25.2325 61.812 25.0139 61.9271 24.8282L61.6297 24.6438C61.4761 24.8914 61.4019 25.1755 61.4019 25.49H61.7519ZM61.9271 24.8282C62.0448 24.6385 62.2034 24.4908 62.4061 24.3837L62.2426 24.0743C61.986 24.2098 61.7807 24.4002 61.6297 24.6438L61.9271 24.8282ZM62.4072 24.3832C62.6134 24.2724 62.8467 24.2155 63.1109 24.2155V23.8655C62.7944 23.8655 62.5034 23.9342 62.2416 24.0748L62.4072 24.3832ZM63.1109 24.3335C62.8942 24.3335 62.6938 24.3805 62.5139 24.4782L62.6809 24.7858C62.8043 24.7188 62.9463 24.6835 63.1109 24.6835V24.3335ZM62.5139 24.4782C62.3353 24.5751 62.1915 24.7113 62.0845 24.8845L62.3823 25.0685C62.4573 24.947 62.5561 24.8535 62.6809 24.7858L62.5139 24.4782ZM62.0826 24.8878C61.9779 25.0656 61.9284 25.2683 61.9284 25.49H62.2784C62.2784 25.3217 62.3155 25.1821 62.3842 25.0652L62.0826 24.8878ZM61.9284 25.49C61.9284 25.7082 61.9782 25.9085 62.0825 26.0857L62.3842 25.9083C62.3152 25.7908 62.2784 25.6532 62.2784 25.49H61.9284ZM62.0845 26.089C62.1915 26.2622 62.3353 26.3984 62.5139 26.4953L62.6809 26.1877C62.5561 26.12 62.4573 26.0265 62.3823 25.905L62.0845 26.089ZM62.5139 26.4953C62.6938 26.593 62.8942 26.64 63.1109 26.64V26.29C62.9463 26.29 62.8043 26.2547 62.6809 26.1877L62.5139 26.4953ZM63.1109 26.64C63.3276 26.64 63.528 26.593 63.7079 26.4953L63.5409 26.1877C63.4175 26.2547 63.2755 26.29 63.1109 26.29V26.64ZM63.7061 26.4963C63.8898 26.3993 64.0355 26.262 64.1392 26.0857L63.8376 25.9083C63.7679 26.0267 63.6709 26.1191 63.5427 26.1867L63.7061 26.4963ZM64.1373 26.089C64.247 25.9112 64.2999 25.7098 64.2999 25.49H63.9499C63.9499 25.6516 63.9117 25.7881 63.8395 25.905L64.1373 26.089ZM64.2999 25.49C64.2999 25.2667 64.2474 25.0629 64.1373 24.8845L63.8395 25.0685C63.9113 25.1848 63.9499 25.3233 63.9499 25.49H64.2999ZM64.1392 24.8878C64.0355 24.7115 63.8898 24.5742 63.7061 24.4772L63.5427 24.7868C63.6709 24.8544 63.7678 24.9468 63.8375 25.0652L64.1392 24.8878ZM63.7079 24.4782C63.528 24.3805 63.3276 24.3335 63.1109 24.3335V24.6835C63.2755 24.6835 63.4175 24.7188 63.5409 24.7858L63.7079 24.4782ZM71.5734 25.2495V25.0745H71.3984V25.2495H71.5734ZM73.0619 25.2495H73.2369V25.0745H73.0619V25.2495ZM73.0619 25.6915V25.8665H73.2369V25.6915H73.0619ZM71.5734 25.6915H71.3984V25.8665H71.5734V25.6915ZM72.7564 23.631V23.456H72.5814V23.631H72.7564ZM73.2959 23.631H73.4709V23.456H73.2959V23.631ZM73.2959 27.9405V28.1155H73.4709V27.9405H73.2959ZM72.7564 27.9405H72.5814V28.1155H72.7564V27.9405ZM69.5454 28.935V28.76H69.3704V28.935H69.5454ZM73.4584 28.935H73.6334V28.76H73.4584V28.935ZM73.4584 29.377V29.552H73.6334V29.377H73.4584ZM69.5454 29.377H69.3704V29.552H69.5454V29.377ZM69.5454 27.557V27.382H69.3704V27.557H69.5454ZM70.0784 27.557H70.2534V27.382H70.0784V27.557ZM70.0784 29.156V29.331H70.2534V29.156H70.0784ZM69.5454 29.156H69.3704V29.331H69.5454V29.156ZM69.9549 24.359V24.184H69.7799V24.359H69.9549ZM70.3969 24.359H70.5719V24.184H70.3969V24.359ZM70.1889 25.841L70.0286 25.7707L70.0281 25.7718L70.1889 25.841ZM69.6169 26.66L69.7361 26.7882L69.7372 26.787L69.6169 26.66ZM68.7589 27.193L68.6116 27.2875L68.6888 27.4077L68.822 27.3562L68.7589 27.193ZM68.4794 26.7575L68.4201 26.5928L68.2135 26.6672L68.3321 26.852L68.4794 26.7575ZM69.0709 26.4455L68.9692 26.3031L68.9675 26.3043L69.0709 26.4455ZM70.0589 24.359V24.184H69.8839V24.359H70.0589ZM70.5009 24.359H70.6759V24.184H70.5009V24.359ZM71.1769 26.205L71.0628 26.3377L71.0643 26.339L71.1769 26.205ZM71.9244 26.6275L72.072 26.7215L72.1901 26.5359L71.9828 26.4625L71.9244 26.6275ZM71.6514 27.0565L71.5914 27.2209L71.7235 27.2691L71.799 27.1505L71.6514 27.0565ZM70.8129 26.5495L70.6926 26.6767L70.6939 26.6778L70.8129 26.5495ZM70.2539 25.7695L70.0938 25.8401L70.0946 25.8421L70.2539 25.7695ZM68.6484 24.1055V23.9305H68.4734V24.1055H68.6484ZM71.7879 24.1055H71.9629V23.9305H71.7879V24.1055ZM71.7879 24.5475V24.7225H71.9629V24.5475H71.7879ZM68.6484 24.5475H68.4734V24.7225H68.6484V24.5475ZM71.5734 25.4245H73.0619V25.0745H71.5734V25.4245ZM72.8869 25.2495V25.6915H73.2369V25.2495H72.8869ZM73.0619 25.5165H71.5734V25.8665H73.0619V25.5165ZM71.7484 25.6915V25.2495H71.3984V25.6915H71.7484ZM72.7564 23.806H73.2959V23.456H72.7564V23.806ZM73.1209 23.631V27.9405H73.4709V23.631H73.1209ZM73.2959 27.7655H72.7564V28.1155H73.2959V27.7655ZM72.9314 27.9405V23.631H72.5814V27.9405H72.9314ZM69.5454 29.11H73.4584V28.76H69.5454V29.11ZM73.2834 28.935V29.377H73.6334V28.935H73.2834ZM73.4584 29.202H69.5454V29.552H73.4584V29.202ZM69.7204 29.377V28.935H69.3704V29.377H69.7204ZM69.5454 27.732H70.0784V27.382H69.5454V27.732ZM69.9034 27.557V29.156H70.2534V27.557H69.9034ZM70.0784 28.981H69.5454V29.331H70.0784V28.981ZM69.7204 29.156V27.557H69.3704V29.156H69.7204ZM69.9549 24.534H70.3969V24.184H69.9549V24.534ZM70.2219 24.359V24.8335H70.5719V24.359H70.2219ZM70.2219 24.8335C70.2219 25.1654 70.1573 25.4772 70.0286 25.7707L70.3492 25.9113C70.4978 25.5721 70.5719 25.2123 70.5719 24.8335H70.2219ZM70.0281 25.7718C69.9032 26.0619 69.7263 26.3153 69.4965 26.533L69.7372 26.787C70.0015 26.5367 70.2059 26.2441 70.3496 25.9102L70.0281 25.7718ZM69.4977 26.5318C69.2675 26.7459 69.0007 26.9119 68.6958 27.0298L68.822 27.3562C69.167 27.2228 69.4723 27.0335 69.7361 26.7882L69.4977 26.5318ZM68.9062 27.0985L68.6267 26.663L68.3321 26.852L68.6116 27.2875L68.9062 27.0985ZM68.5387 26.9222C68.7703 26.8388 68.9825 26.727 69.1742 26.5867L68.9675 26.3043C68.804 26.424 68.6218 26.5202 68.4201 26.5928L68.5387 26.9222ZM69.1726 26.5879C69.3674 26.4488 69.5375 26.2881 69.6824 26.1059L69.4084 25.8881C69.2846 26.0439 69.1384 26.1822 68.9692 26.3031L69.1726 26.5879ZM69.6824 26.1059C69.8287 25.9218 69.9402 25.7204 70.0162 25.502L69.6856 25.387C69.6229 25.5673 69.5308 25.7342 69.4084 25.8881L69.6824 26.1059ZM70.0162 25.502C70.0918 25.2844 70.1299 25.0614 70.1299 24.8335H69.7799C69.7799 25.0216 69.7486 25.2059 69.6856 25.387L70.0162 25.502ZM70.1299 24.8335V24.359H69.7799V24.8335H70.1299ZM70.0589 24.534H70.5009V24.184H70.0589V24.534ZM70.3259 24.359V24.8335H70.6759V24.359H70.3259ZM70.3259 24.8335C70.3259 25.1131 70.3912 25.3842 70.5193 25.6451L70.8335 25.4909C70.7276 25.2752 70.6759 25.0566 70.6759 24.8335H70.3259ZM70.5193 25.6451C70.6475 25.9063 70.8296 26.1371 71.0628 26.3377L71.291 26.0723C71.0909 25.9002 70.9393 25.7064 70.8335 25.4909L70.5193 25.6451ZM71.0643 26.339C71.2979 26.5352 71.5657 26.6862 71.866 26.7925L71.9828 26.4625C71.7197 26.3695 71.4892 26.2388 71.2894 26.071L71.0643 26.339ZM71.7767 26.5335L71.5037 26.9625L71.799 27.1505L72.072 26.7215L71.7767 26.5335ZM71.7114 26.8921C71.4115 26.7827 71.1523 26.6256 70.9319 26.4212L70.6939 26.6778C70.9501 26.9154 71.25 27.0963 71.5914 27.2209L71.7114 26.8921ZM70.9331 26.4223C70.711 26.2123 70.538 25.9708 70.4131 25.6969L70.0946 25.8421C70.2385 26.1576 70.438 26.436 70.6926 26.6767L70.9331 26.4223ZM70.414 25.6989C70.294 25.427 70.2339 25.1391 70.2339 24.8335H69.8839C69.8839 25.1866 69.9537 25.5227 70.0938 25.8401L70.414 25.6989ZM70.2339 24.8335V24.359H69.8839V24.8335H70.2339ZM68.6484 24.2805H71.7879V23.9305H68.6484V24.2805ZM71.6129 24.1055V24.5475H71.9629V24.1055H71.6129ZM71.7879 24.3725H68.6484V24.7225H71.7879V24.3725ZM68.8234 24.5475V24.1055H68.4734V24.5475H68.8234ZM79.4704 23.631V23.456H79.2954V23.631H79.4704ZM80.0099 23.631H80.1849V23.456H80.0099V23.631ZM80.0099 28.038V28.213H80.1849V28.038H80.0099ZM79.4704 28.038H79.2954V28.213H79.4704V28.038ZM79.8409 25.5615V25.3865H79.6659V25.5615H79.8409ZM80.8744 25.5615H81.0494V25.3865H80.8744V25.5615ZM80.8744 26.01V26.185H81.0494V26.01H80.8744ZM79.8409 26.01H79.6659V26.185H79.8409V26.01ZM75.4599 24.346V24.171H75.2849V24.346H75.4599ZM78.9309 24.346H79.1059V24.171H78.9309V24.346ZM78.9309 24.7815V24.9565H79.1059V24.7815H78.9309ZM75.4599 24.7815H75.2849V24.9565H75.4599V24.7815ZM77.9299 25.243L77.8582 25.4027L77.8609 25.4039L77.9299 25.243ZM78.4239 25.6265L78.2812 25.7279L78.2825 25.7297L78.4239 25.6265ZM78.4239 26.777L78.5653 26.8802L78.5665 26.8784L78.4239 26.777ZM75.9604 26.777L75.8177 26.8784L75.8208 26.8826L75.9604 26.777ZM76.4609 25.243L76.5298 25.4039L76.5326 25.4026L76.4609 25.243ZM76.5519 25.711L76.6557 25.8519L76.658 25.8501L76.5519 25.711ZM77.8389 26.686L77.7351 26.5451L77.7333 26.5465L77.8389 26.686ZM77.8389 25.711L77.7309 25.8488L77.7351 25.8519L77.8389 25.711ZM76.9289 23.631V23.456H76.7539V23.631H76.9289ZM77.4684 23.631H77.6434V23.456H77.4684V23.631ZM77.4684 24.567V24.742H77.6434V24.567H77.4684ZM76.9289 24.567H76.7539V24.742H76.9289V24.567ZM76.3504 28.935V28.76H76.1754V28.935H76.3504ZM80.2699 28.935H80.4449V28.76H80.2699V28.935ZM80.2699 29.377V29.552H80.4449V29.377H80.2699ZM76.3504 29.377H76.1754V29.552H76.3504V29.377ZM76.3504 27.687V27.512H76.1754V27.687H76.3504ZM76.8834 27.687H77.0584V27.512H76.8834V27.687ZM76.8834 29.117V29.292H77.0584V29.117H76.8834ZM76.3504 29.117H76.1754V29.292H76.3504V29.117ZM79.4704 23.806H80.0099V23.456H79.4704V23.806ZM79.8349 23.631V28.038H80.1849V23.631H79.8349ZM80.0099 27.863H79.4704V28.213H80.0099V27.863ZM79.6454 28.038V23.631H79.2954V28.038H79.6454ZM79.8409 25.7365H80.8744V25.3865H79.8409V25.7365ZM80.6994 25.5615V26.01H81.0494V25.5615H80.6994ZM80.8744 25.835H79.8409V26.185H80.8744V25.835ZM80.0159 26.01V25.5615H79.6659V26.01H80.0159ZM75.4599 24.521H78.9309V24.171H75.4599V24.521ZM78.7559 24.346V24.7815H79.1059V24.346H78.7559ZM78.9309 24.6065H75.4599V24.9565H78.9309V24.6065ZM75.6349 24.7815V24.346H75.2849V24.7815H75.6349ZM77.1954 25.275C77.4527 25.275 77.6723 25.3193 77.8582 25.4027L78.0016 25.0834C77.7628 24.9761 77.4928 24.925 77.1954 24.925V25.275ZM77.8609 25.4039C78.048 25.484 78.1854 25.593 78.2812 25.7279L78.5665 25.5251C78.4283 25.3306 78.2364 25.184 77.9988 25.0821L77.8609 25.4039ZM78.2825 25.7297C78.3752 25.8567 78.4244 26.0102 78.4244 26.1985H78.7744C78.7744 25.9448 78.7066 25.717 78.5652 25.5233L78.2825 25.7297ZM78.4244 26.1985C78.4244 26.3868 78.3752 26.5434 78.2812 26.6756L78.5665 26.8784C78.7066 26.6813 78.7744 26.4522 78.7744 26.1985H78.4244ZM78.2825 26.6738C78.1869 26.8049 78.0492 26.9125 77.8609 26.9931L77.9988 27.3149C78.2352 27.2135 78.427 27.0698 78.5653 26.8802L78.2825 26.6738ZM77.8609 26.9931C77.6743 27.0731 77.4537 27.1155 77.1954 27.1155V27.4655C77.4918 27.4655 77.7608 27.4169 77.9988 27.3149L77.8609 26.9931ZM77.1954 27.1155C76.9371 27.1155 76.7165 27.0731 76.5298 26.9931L76.3919 27.3149C76.63 27.4169 76.899 27.4655 77.1954 27.4655V27.1155ZM76.5298 26.9931C76.3412 26.9123 76.2003 26.8041 76.0999 26.6714L75.8208 26.8826C75.9631 27.0706 76.1559 27.2137 76.3919 27.3149L76.5298 26.9931ZM76.103 26.6756C76.0091 26.5434 75.9599 26.3868 75.9599 26.1985H75.6099C75.6099 26.4522 75.6777 26.6813 75.8177 26.8784L76.103 26.6756ZM75.9599 26.1985C75.9599 26.0102 76.0091 25.8567 76.1017 25.7297L75.8195 25.5227C75.6782 25.7164 75.6099 25.9448 75.6099 26.1985H75.9599ZM76.1017 25.7297C76.2022 25.5932 76.3423 25.4842 76.5298 25.4039L76.3919 25.0821C76.1548 25.1838 75.9616 25.3298 75.8195 25.5227L76.1017 25.7297ZM76.5326 25.4026C76.7185 25.3192 76.9381 25.275 77.1954 25.275V24.925C76.898 24.925 76.628 24.9761 76.3892 25.0834L76.5326 25.4026ZM77.1954 25.3475C76.9034 25.3475 76.6484 25.4172 76.4457 25.5719L76.658 25.8501C76.7847 25.7535 76.9587 25.6975 77.1954 25.6975V25.3475ZM76.4481 25.5701C76.2389 25.7243 76.1299 25.9389 76.1299 26.1985H76.4799C76.4799 26.0507 76.5356 25.9404 76.6557 25.8519L76.4481 25.5701ZM76.1299 26.1985C76.1299 26.4581 76.2389 26.6727 76.4481 26.8269L76.6557 26.5451C76.5356 26.4566 76.4799 26.3463 76.4799 26.1985H76.1299ZM76.4481 26.8269C76.6506 26.9761 76.9046 27.043 77.1954 27.043V26.693C76.9575 26.693 76.7825 26.6386 76.6557 26.5451L76.4481 26.8269ZM77.1954 27.043C77.4894 27.043 77.745 26.9765 77.9445 26.8255L77.7333 26.5465C77.6121 26.6381 77.4387 26.693 77.1954 26.693V27.043ZM77.9427 26.8269C78.1519 26.6727 78.2609 26.4581 78.2609 26.1985H77.9109C77.9109 26.3463 77.8552 26.4566 77.7351 26.5451L77.9427 26.8269ZM78.2609 26.1985C78.2609 25.9389 78.1519 25.7243 77.9427 25.5701L77.7351 25.8519C77.8552 25.9404 77.9109 26.0507 77.9109 26.1985H78.2609ZM77.9468 25.5733C77.7471 25.4167 77.4907 25.3475 77.1954 25.3475V25.6975C77.4374 25.6975 77.61 25.754 77.7309 25.8488L77.9468 25.5733ZM76.9289 23.806H77.4684V23.456H76.9289V23.806ZM77.2934 23.631V24.567H77.6434V23.631H77.2934ZM77.4684 24.392H76.9289V24.742H77.4684V24.392ZM77.1039 24.567V23.631H76.7539V24.567H77.1039ZM76.3504 29.11H80.2699V28.76H76.3504V29.11ZM80.0949 28.935V29.377H80.4449V28.935H80.0949ZM80.2699 29.202H76.3504V29.552H80.2699V29.202ZM76.5254 29.377V28.935H76.1754V29.377H76.5254ZM76.3504 27.862H76.8834V27.512H76.3504V27.862ZM76.7084 27.687V29.117H77.0584V27.687H76.7084ZM76.8834 28.942H76.3504V29.292H76.8834V28.942ZM76.5254 29.117V27.687H76.1754V29.117H76.5254ZM85.2265 29H85.0515V29.175H85.2265V29ZM85.2265 24.2355V24.0605H85.0515V24.2355H85.2265ZM87.521 24.372L87.4648 24.5378L87.4673 24.5385L87.521 24.372ZM87.5275 26.946L87.5916 27.1089L87.5938 27.1079L87.5275 26.946ZM85.8245 27.102V26.927H85.6495V27.102H85.8245ZM85.8245 29V29.175H85.9995V29H85.8245ZM85.8245 26.6145H85.6495V26.7895H85.8245V26.6145ZM87.4495 24.918L87.3567 25.0664L87.3581 25.0672L87.4495 24.918ZM85.8245 24.723V24.548H85.6495V24.723H85.8245ZM85.4015 29V24.2355H85.0515V29H85.4015ZM85.2265 24.4105H86.585V24.0605H85.2265V24.4105ZM86.585 24.4105C86.9258 24.4105 87.2182 24.4542 87.4648 24.5378L87.5771 24.2062C87.2865 24.1078 86.9548 24.0605 86.585 24.0605V24.4105ZM87.4673 24.5385C87.7051 24.6153 87.8803 24.7402 88.0032 24.9101L88.2868 24.7049C88.115 24.4675 87.8742 24.3021 87.5747 24.2055L87.4673 24.5385ZM88.0032 24.9101C88.1221 25.0745 88.191 25.3095 88.191 25.633H88.541C88.541 25.2631 88.4625 24.9479 88.2868 24.7049L88.0032 24.9101ZM88.191 25.633C88.191 25.9411 88.1231 26.1795 88.0003 26.3601L88.2897 26.5569C88.4615 26.3042 88.541 25.9922 88.541 25.633H88.191ZM88.0003 26.3601C87.874 26.5458 87.6967 26.6875 87.4611 26.7841L87.5938 27.1079C87.887 26.9878 88.1213 26.8045 88.2897 26.5569L88.0003 26.3601ZM87.4634 26.7832C87.2234 26.8776 86.9404 26.927 86.611 26.927V27.277C86.9749 27.277 87.3029 27.2225 87.5916 27.1089L87.4634 26.7832ZM86.611 26.927H85.8245V27.277H86.611V26.927ZM85.6495 27.102V29H85.9995V27.102H85.6495ZM85.8245 28.825H85.2265V29.175H85.8245V28.825ZM85.8245 26.7895H86.533V26.4395H85.8245V26.7895ZM86.533 26.7895C86.9654 26.7895 87.3209 26.7094 87.5689 26.5194L87.3561 26.2416C87.1968 26.3636 86.9326 26.4395 86.533 26.4395V26.7895ZM87.5689 26.5194C87.8293 26.3199 87.943 26.0101 87.943 25.633H87.593C87.593 25.9405 87.503 26.129 87.3561 26.2416L87.5689 26.5194ZM87.943 25.633C87.943 25.2519 87.8243 24.9423 87.5409 24.7688L87.3581 25.0672C87.4993 25.1537 87.593 25.3208 87.593 25.633H87.943ZM87.5422 24.7696C87.293 24.6138 86.9395 24.548 86.507 24.548V24.898C86.9152 24.898 87.19 24.9622 87.3567 25.0664L87.5422 24.7696ZM86.507 24.548H85.8245V24.898H86.507V24.548ZM85.6495 24.723V26.6145H85.9995V24.723H85.6495ZM89.9768 29H89.8018V29.175H89.9768V29ZM89.9768 28.649L89.8536 28.5247L89.8018 28.576V28.649H89.9768ZM91.1663 27.427L91.2947 27.5459L91.2954 27.5451L91.1663 27.427ZM91.9073 26.4715L92.0573 26.5615L92.0579 26.5605L91.9073 26.4715ZM92.0633 25.1975L91.9028 25.2677L91.9057 25.2737L92.0633 25.1975ZM91.7773 24.879L91.6872 25.0291L91.691 25.0313L91.7773 24.879ZM90.7373 24.9245L90.6428 24.7772L90.6411 24.7783L90.7373 24.9245ZM90.2953 25.3145L90.1739 25.4406L90.3075 25.5691L90.4281 25.4284L90.2953 25.3145ZM89.9508 24.983L89.8194 24.8674L89.7088 24.993L89.8294 25.1091L89.9508 24.983ZM92.0893 24.45L92.0045 24.6031L92.0059 24.6039L92.0893 24.45ZM92.5703 24.9245L92.4171 25.0092L92.4185 25.0117L92.5703 24.9245ZM91.8228 27.466L91.9541 27.5816L91.9549 27.5807L91.8228 27.466ZM90.8478 28.532L90.7205 28.4119L90.4122 28.7386L90.8602 28.7066L90.8478 28.532ZM91.2378 28.506L91.2487 28.6807L91.2541 28.6802L91.2378 28.506ZM92.9733 28.4865H93.1483V28.3115H92.9733V28.4865ZM92.9733 29V29.175H93.1483V29H92.9733ZM90.1518 29V28.649H89.8018V29H90.1518ZM90.0999 28.7733C90.5691 28.3085 90.9675 27.8993 91.2947 27.5459L91.0379 27.3081C90.7151 27.6567 90.3204 28.0622 89.8536 28.5247L90.0999 28.7733ZM91.2954 27.5451C91.625 27.1847 91.8802 26.8567 92.0573 26.5615L91.7572 26.3815C91.5963 26.6496 91.3575 26.9586 91.0371 27.3089L91.2954 27.5451ZM92.0579 26.5605C92.2379 26.256 92.3358 25.9567 92.3358 25.6655H91.9858C91.9858 25.877 91.9146 26.115 91.7566 26.3825L92.0579 26.5605ZM92.3358 25.6655C92.3358 25.4664 92.2993 25.2835 92.2208 25.1213L91.9057 25.2737C91.9572 25.3802 91.9858 25.5093 91.9858 25.6655H92.3358ZM92.2236 25.1274C92.148 24.9545 92.0269 24.8193 91.8635 24.7267L91.691 25.0313C91.7876 25.086 91.8571 25.1632 91.9028 25.2677L92.2236 25.1274ZM91.8673 24.7289C91.7028 24.6302 91.5046 24.587 91.2833 24.587V24.937C91.4606 24.937 91.5917 24.9718 91.6872 25.0291L91.8673 24.7289ZM91.2833 24.587C91.0538 24.587 90.8391 24.6513 90.6428 24.7772L90.8317 25.0718C90.9734 24.981 91.1228 24.937 91.2833 24.937V24.587ZM90.6411 24.7783C90.4625 24.8958 90.3029 25.0367 90.1624 25.2006L90.4281 25.4284C90.5476 25.289 90.6826 25.1699 90.8334 25.0707L90.6411 24.7783ZM90.4166 25.1884L90.0721 24.8569L89.8294 25.1091L90.1739 25.4406L90.4166 25.1884ZM90.0821 25.0986C90.2617 24.8946 90.4528 24.7365 90.6548 24.6216L90.4818 24.3174C90.2418 24.4538 90.0212 24.6381 89.8194 24.8674L90.0821 25.0986ZM90.6548 24.6216C90.8447 24.5136 91.0759 24.456 91.3548 24.456V24.106C91.027 24.106 90.7338 24.1741 90.4818 24.3174L90.6548 24.6216ZM91.3548 24.456C91.6178 24.456 91.832 24.5077 92.0045 24.6031L92.174 24.2969C91.9391 24.1669 91.6637 24.106 91.3548 24.106V24.456ZM92.0059 24.6039C92.185 24.7009 92.3209 24.8353 92.4171 25.0092L92.7234 24.8398C92.5943 24.6064 92.4095 24.4244 92.1726 24.2961L92.0059 24.6039ZM92.4185 25.0117C92.518 25.1848 92.5708 25.3921 92.5708 25.6395H92.9208C92.9208 25.3409 92.8566 25.0716 92.722 24.8373L92.4185 25.0117ZM92.5708 25.6395C92.5708 25.8955 92.4984 26.1614 92.3455 26.4391L92.6521 26.6079C92.8284 26.2876 92.9208 25.9642 92.9208 25.6395H92.5708ZM92.3455 26.4391C92.1881 26.7248 91.9706 27.0288 91.6906 27.3513L91.9549 27.5807C92.2469 27.2445 92.48 26.9202 92.6521 26.6079L92.3455 26.4391ZM91.6914 27.3504C91.407 27.6736 91.0834 28.0274 90.7205 28.4119L90.975 28.6521C91.3401 28.2653 91.6665 27.9084 91.9541 27.5816L91.6914 27.3504ZM90.8602 28.7066C90.981 28.6979 91.1105 28.6893 91.2487 28.6807L91.2268 28.3313C91.0877 28.34 90.9572 28.3487 90.8353 28.3574L90.8602 28.7066ZM91.2541 28.6802C91.3881 28.6677 91.5126 28.6615 91.6278 28.6615V28.3115C91.5002 28.3115 91.3647 28.3183 91.2214 28.3318L91.2541 28.6802ZM91.6278 28.6615H92.9733V28.3115H91.6278V28.6615ZM92.7983 28.4865V29H93.1483V28.4865H92.7983ZM92.9733 28.825H89.9768V29.175H92.9733V28.825ZM94.9602 29H94.7852V29.175H94.9602V29ZM94.9602 24.2355V24.0605H94.7852V24.2355H94.9602ZM97.2547 24.372L97.1986 24.5378L97.201 24.5385L97.2547 24.372ZM97.2612 26.946L97.3253 27.1089L97.3276 27.1079L97.2612 26.946ZM95.5582 27.102V26.927H95.3832V27.102H95.5582ZM95.5582 29V29.175H95.7332V29H95.5582ZM95.5582 26.6145H95.3832V26.7895H95.5582V26.6145ZM97.1832 24.918L97.0905 25.0664L97.0919 25.0672L97.1832 24.918ZM95.5582 24.723V24.548H95.3832V24.723H95.5582ZM95.1352 29V24.2355H94.7852V29H95.1352ZM94.9602 24.4105H96.3187V24.0605H94.9602V24.4105ZM96.3187 24.4105C96.6596 24.4105 96.9519 24.4542 97.1986 24.5378L97.3109 24.2062C97.0202 24.1078 96.6885 24.0605 96.3187 24.0605V24.4105ZM97.201 24.5385C97.4388 24.6153 97.6141 24.7402 97.7369 24.9101L98.0205 24.7049C97.8487 24.4675 97.608 24.3021 97.3085 24.2055L97.201 24.5385ZM97.7369 24.9101C97.8559 25.0745 97.9247 25.3095 97.9247 25.633H98.2747C98.2747 25.2631 98.1963 24.9479 98.0205 24.7049L97.7369 24.9101ZM97.9247 25.633C97.9247 25.9411 97.8568 26.1795 97.734 26.3601L98.0234 26.5569C98.1953 26.3042 98.2747 25.9922 98.2747 25.633H97.9247ZM97.734 26.3601C97.6077 26.5458 97.4304 26.6875 97.1949 26.7841L97.3276 27.1079C97.6207 26.9878 97.8551 26.8045 98.0234 26.5569L97.734 26.3601ZM97.1972 26.7832C96.9572 26.8776 96.6742 26.927 96.3447 26.927V27.277C96.7086 27.277 97.0366 27.2225 97.3253 27.1089L97.1972 26.7832ZM96.3447 26.927H95.5582V27.277H96.3447V26.927ZM95.3832 27.102V29H95.7332V27.102H95.3832ZM95.5582 28.825H94.9602V29.175H95.5582V28.825ZM95.5582 26.7895H96.2667V26.4395H95.5582V26.7895ZM96.2667 26.7895C96.6991 26.7895 97.0546 26.7094 97.3026 26.5194L97.0898 26.2416C96.9305 26.3636 96.6663 26.4395 96.2667 26.4395V26.7895ZM97.3026 26.5194C97.5631 26.3199 97.6767 26.0101 97.6767 25.633H97.3267C97.3267 25.9405 97.2367 26.129 97.0898 26.2416L97.3026 26.5194ZM97.6767 25.633C97.6767 25.2519 97.5581 24.9423 97.2746 24.7688L97.0919 25.0672C97.2331 25.1537 97.3267 25.3208 97.3267 25.633H97.6767ZM97.276 24.7696C97.0267 24.6138 96.6732 24.548 96.2407 24.548V24.898C96.6489 24.898 96.9237 24.9622 97.0905 25.0664L97.276 24.7696ZM96.2407 24.548H95.5582V24.898H96.2407V24.548ZM95.3832 24.723V26.6145H95.7332V24.723H95.3832ZM106.683 23.6245V23.4495H106.508V23.6245H106.683ZM107.196 23.6245H107.371V23.4495H107.196V23.6245ZM107.196 29.507V29.682H107.371V29.507H107.196ZM106.683 29.507H106.508V29.682H106.683V29.507ZM105.688 25.984V25.809H105.513V25.984H105.688ZM106.819 25.984H106.994V25.809H106.819V25.984ZM106.819 26.426V26.601H106.994V26.426H106.819ZM105.688 26.426H105.513V26.601H105.688V26.426ZM105.35 23.7545V23.5795H105.175V23.7545H105.35ZM105.851 23.7545H106.026V23.5795H105.851V23.7545ZM105.851 29.2015V29.3765H106.026V29.2015H105.851ZM105.35 29.2015H105.175V29.3765H105.35V29.2015ZM102.419 27.6025V27.4275H102.244V27.6025H102.419ZM103.589 27.596L103.592 27.771L103.595 27.7709L103.589 27.596ZM104.928 27.4335L105.101 27.4133L105.079 27.2225L104.891 27.2623L104.928 27.4335ZM104.98 27.882L105.015 28.0535L105.172 28.0214L105.153 27.8618L104.98 27.882ZM102.419 28.0575H102.244V28.2325H102.419V28.0575ZM102.419 24.3395V24.1645H102.244V24.3395H102.419ZM104.603 24.3395H104.778V24.1645H104.603V24.3395ZM104.603 24.7815V24.9565H104.778V24.7815H104.603ZM102.958 24.7815V24.6065H102.783V24.7815H102.958ZM102.958 27.8105V27.9855H103.133V27.8105H102.958ZM102.419 27.8105H102.244V27.9855H102.419V27.8105ZM106.683 23.7995H107.196V23.4495H106.683V23.7995ZM107.021 23.6245V29.507H107.371V23.6245H107.021ZM107.196 29.332H106.683V29.682H107.196V29.332ZM106.858 29.507V23.6245H106.508V29.507H106.858ZM105.688 26.159H106.819V25.809H105.688V26.159ZM106.644 25.984V26.426H106.994V25.984H106.644ZM106.819 26.251H105.688V26.601H106.819V26.251ZM105.863 26.426V25.984H105.513V26.426H105.863ZM105.35 23.9295H105.851V23.5795H105.35V23.9295ZM105.676 23.7545V29.2015H106.026V23.7545H105.676ZM105.851 29.0265H105.35V29.3765H105.851V29.0265ZM105.525 29.2015V23.7545H105.175V29.2015H105.525ZM102.419 27.7775H102.802V27.4275H102.419V27.7775ZM102.802 27.7775C103.093 27.7775 103.357 27.7753 103.592 27.771L103.585 27.421C103.353 27.4253 103.092 27.4275 102.802 27.4275V27.7775ZM103.595 27.7709C103.838 27.7621 104.068 27.7444 104.286 27.7177L104.244 27.3702C104.037 27.3955 103.816 27.4126 103.582 27.4211L103.595 27.7709ZM104.286 27.7177C104.508 27.691 104.734 27.6534 104.964 27.6047L104.891 27.2623C104.671 27.3089 104.455 27.3449 104.244 27.3702L104.286 27.7177ZM104.754 27.4537L104.806 27.9022L105.153 27.8618L105.101 27.4133L104.754 27.4537ZM104.945 27.7105C104.715 27.7573 104.492 27.7933 104.277 27.8187L104.318 28.1663C104.544 28.1397 104.776 28.1021 105.015 28.0535L104.945 27.7105ZM104.277 27.8187C104.065 27.8441 103.84 27.8611 103.602 27.8696L103.614 28.2194C103.861 28.2106 104.096 28.1929 104.318 28.1663L104.277 27.8187ZM103.602 27.8696C103.366 27.8782 103.099 27.8825 102.802 27.8825V28.2325C103.103 28.2325 103.373 28.2281 103.614 28.2194L103.602 27.8696ZM102.802 27.8825H102.419V28.2325H102.802V27.8825ZM102.594 28.0575V27.6025H102.244V28.0575H102.594ZM102.419 24.5145H104.603V24.1645H102.419V24.5145ZM104.428 24.3395V24.7815H104.778V24.3395H104.428ZM104.603 24.6065H102.958V24.9565H104.603V24.6065ZM102.783 24.7815V27.8105H103.133V24.7815H102.783ZM102.958 27.6355H102.419V27.9855H102.958V27.6355ZM102.594 27.8105V24.3395H102.244V27.8105H102.594ZM111.583 26.556V26.381H111.408V26.556H111.583ZM112.116 26.556H112.291V26.381H112.116V26.556ZM112.116 27.44V27.615H112.291V27.44H112.116ZM111.583 27.44H111.408V27.615H111.583V27.44ZM109.204 26.2375V26.0625H109.029V26.2375H109.204ZM114.502 26.2375H114.677V26.0625H114.502V26.2375ZM114.502 26.647V26.822H114.677V26.647H114.502ZM109.204 26.647H109.029V26.822H109.204V26.647ZM111.583 23.592V23.417H111.408V23.592H111.583ZM112.116 23.592H112.291V23.417H112.116V23.592ZM112.116 24.3005V24.4755H112.291V24.3005H112.116ZM111.583 24.3005H111.408V24.4755H111.583V24.3005ZM111.557 24.3525V24.1775H111.382V24.3525H111.557ZM112.032 24.3525H112.207V24.1775H112.032V24.3525ZM110.556 25.8215L110.6 25.991L110.601 25.9905L110.556 25.8215ZM109.64 25.971L109.477 26.0355L109.525 26.1558L109.654 26.1454L109.64 25.971ZM109.477 25.5615L109.467 25.3868L109.225 25.4012L109.314 25.626L109.477 25.5615ZM110.29 25.451L110.328 25.6218L110.331 25.6211L110.29 25.451ZM111.395 24.879L111.26 24.7669L111.258 24.7697L111.395 24.879ZM111.674 24.3525V24.1775H111.499V24.3525H111.674ZM112.142 24.3525H112.317V24.1775H112.142V24.3525ZM113.41 25.451L113.368 25.621L113.371 25.6218L113.41 25.451ZM114.222 25.5615L114.385 25.626L114.474 25.4012L114.232 25.3868L114.222 25.5615ZM114.06 25.971L114.046 26.1454L114.175 26.1558L114.222 26.0355L114.06 25.971ZM113.137 25.8215L113.091 25.9904L113.094 25.9911L113.137 25.8215ZM112.376 25.516L112.288 25.6674L112.29 25.6681L112.376 25.516ZM109.744 24.138V23.963H109.569V24.138H109.744ZM113.969 24.138H114.144V23.963H113.969V24.138ZM113.969 24.554V24.729H114.144V24.554H113.969ZM109.744 24.554H109.569V24.729H109.744V24.554ZM109.841 27.1865V27.0115H109.666V27.1865H109.841ZM113.826 27.1865H114.001V27.0115H113.826V27.1865ZM113.826 28.4735V28.6485H114.001V28.4735H113.826ZM110.381 28.4735V28.2985H110.206V28.4735H110.381ZM110.381 29.182V29.357H110.556V29.182H110.381ZM109.854 29.182H109.679V29.357H109.854V29.182ZM109.854 28.09V27.915H109.679V28.09H109.854ZM113.299 28.09V28.265H113.474V28.09H113.299ZM113.299 27.5895H113.474V27.4145H113.299V27.5895ZM109.841 27.5895H109.666V27.7645H109.841V27.5895ZM109.854 29.026V28.851H109.679V29.026H109.854ZM114.001 29.026H114.176V28.851H114.001V29.026ZM114.001 29.442V29.617H114.176V29.442H114.001ZM109.854 29.442H109.679V29.617H109.854V29.442ZM111.583 26.731H112.116V26.381H111.583V26.731ZM111.941 26.556V27.44H112.291V26.556H111.941ZM112.116 27.265H111.583V27.615H112.116V27.265ZM111.758 27.44V26.556H111.408V27.44H111.758ZM109.204 26.4125H114.502V26.0625H109.204V26.4125ZM114.327 26.2375V26.647H114.677V26.2375H114.327ZM114.502 26.472H109.204V26.822H114.502V26.472ZM109.379 26.647V26.2375H109.029V26.647H109.379ZM111.583 23.767H112.116V23.417H111.583V23.767ZM111.941 23.592V24.3005H112.291V23.592H111.941ZM112.116 24.1255H111.583V24.4755H112.116V24.1255ZM111.758 24.3005V23.592H111.408V24.3005H111.758ZM111.557 24.5275H112.032V24.1775H111.557V24.5275ZM111.857 24.3525V24.4435H112.207V24.3525H111.857ZM111.857 24.4435C111.857 24.6442 111.803 24.8141 111.7 24.9599L111.986 25.1621C112.134 24.9526 112.207 24.7108 112.207 24.4435H111.857ZM111.7 24.9599C111.592 25.1134 111.439 25.2488 111.237 25.3639L111.41 25.6681C111.649 25.5319 111.843 25.3639 111.986 25.1621L111.7 24.9599ZM111.237 25.3639C111.031 25.481 110.789 25.5777 110.511 25.6525L110.601 25.9905C110.904 25.9093 111.174 25.8023 111.41 25.6681L111.237 25.3639ZM110.512 25.652C110.237 25.7229 109.942 25.7713 109.626 25.7966L109.654 26.1454C109.988 26.1187 110.303 26.0674 110.6 25.991L110.512 25.652ZM109.802 25.9065L109.64 25.497L109.314 25.626L109.477 26.0355L109.802 25.9065ZM109.487 25.7362C109.786 25.7184 110.066 25.6804 110.328 25.6218L110.251 25.2802C110.01 25.3343 109.749 25.37 109.467 25.3868L109.487 25.7362ZM110.331 25.6211C110.592 25.558 110.826 25.4759 111.031 25.3735L110.874 25.0605C110.698 25.1488 110.49 25.2227 110.249 25.2809L110.331 25.6211ZM111.031 25.3735C111.238 25.2699 111.408 25.1428 111.531 24.9883L111.258 24.7697C111.174 24.8752 111.048 24.9734 110.874 25.0605L111.031 25.3735ZM111.529 24.991C111.662 24.8315 111.732 24.6472 111.732 24.4435H111.382C111.382 24.5605 111.344 24.6664 111.26 24.7669L111.529 24.991ZM111.732 24.4435V24.3525H111.382V24.4435H111.732ZM111.674 24.5275H112.142V24.1775H111.674V24.5275ZM111.967 24.3525V24.4435H112.317V24.3525H111.967ZM111.967 24.4435C111.967 24.6472 112.037 24.8315 112.17 24.991L112.439 24.767C112.355 24.6665 112.317 24.5605 112.317 24.4435H111.967ZM112.17 24.991C112.297 25.1437 112.468 25.2701 112.675 25.3735L112.831 25.0605C112.657 24.9732 112.528 24.8743 112.439 24.767L112.17 24.991ZM112.675 25.3735C112.879 25.4757 113.111 25.5579 113.368 25.621L113.451 25.2811C113.215 25.2229 113.008 25.149 112.831 25.0605L112.675 25.3735ZM113.371 25.6218C113.633 25.6804 113.913 25.7184 114.212 25.7362L114.232 25.3868C113.95 25.37 113.689 25.3343 113.448 25.2802L113.371 25.6218ZM114.059 25.497L113.897 25.9065L114.222 26.0355L114.385 25.626L114.059 25.497ZM114.074 25.7966C113.757 25.7713 113.46 25.7229 113.18 25.6519L113.094 25.9911C113.394 26.0674 113.712 26.1187 114.046 26.1454L114.074 25.7966ZM113.183 25.6527C112.908 25.5779 112.669 25.4812 112.463 25.3639L112.29 25.6681C112.525 25.8021 112.793 25.9092 113.091 25.9904L113.183 25.6527ZM112.464 25.3646C112.266 25.2497 112.115 25.1142 112.005 24.9599L111.72 25.1621C111.862 25.3631 112.053 25.531 112.288 25.6674L112.464 25.3646ZM112.005 24.9599C111.902 24.8141 111.849 24.6442 111.849 24.4435H111.499C111.499 24.7108 111.572 24.9526 111.72 25.1621L112.005 24.9599ZM111.849 24.4435V24.3525H111.499V24.4435H111.849ZM109.744 24.313H113.969V23.963H109.744V24.313ZM113.794 24.138V24.554H114.144V24.138H113.794ZM113.969 24.379H109.744V24.729H113.969V24.379ZM109.919 24.554V24.138H109.569V24.554H109.919ZM109.841 27.3615H113.826V27.0115H109.841V27.3615ZM113.651 27.1865V28.4735H114.001V27.1865H113.651ZM113.826 28.2985H110.381V28.6485H113.826V28.2985ZM110.206 28.4735V29.182H110.556V28.4735H110.206ZM110.381 29.007H109.854V29.357H110.381V29.007ZM110.029 29.182V28.09H109.679V29.182H110.029ZM109.854 28.265H113.299V27.915H109.854V28.265ZM113.474 28.09V27.5895H113.124V28.09H113.474ZM113.299 27.4145H109.841V27.7645H113.299V27.4145ZM110.016 27.5895V27.1865H109.666V27.5895H110.016ZM109.854 29.201H114.001V28.851H109.854V29.201ZM113.826 29.026V29.442H114.176V29.026H113.826ZM114.001 29.267H109.854V29.617H114.001V29.267ZM110.029 29.442V29.026H109.679V29.442H110.029Z" fill="#72BFEE"/>
<defs>
<clipPath id="clip0_68_176">
<rect width="32" height="32" fill="white" transform="translate(6 2)"/>
</clipPath>
</defs>
</svg>
